<svg xmlns="http://www.w3.org/2000/svg" xmlns:xlink="http://www.w3.org/1999/xlink" width="192" zoomAndPan="magnify" viewBox="0 0 144 143.999998" height="192" preserveAspectRatio="xMidYMid meet" version="1.0"><defs><filter x="0%" y="0%" width="100%" height="100%" id="c82568087f"><feColorMatrix values="0 0 0 0 1 0 0 0 0 1 0 0 0 0 1 0 0 0 1 0" color-interpolation-filters="sRGB"/></filter><g/><mask id="fb3b6a1dd7"><g filter="url(#c82568087f)"><rect x="-14.4" width="172.8" fill="#000000" y="-14.4" height="172.799997" fill-opacity="0.4"/></g></mask><clipPath id="98d57f17f0"><path d="M 0 0 L 144 0 L 144 144 L 0 144 Z M 0 0 " clip-rule="nonzero"/></clipPath><clipPath id="48d5baf166"><path d="M 37.5 0 L 106.5 0 C 127.210938 0 144 16.789062 144 37.5 L 144 106.5 C 144 127.210938 127.210938 144 106.5 144 L 37.5 144 C 16.789062 144 0 127.210938 0 106.5 L 0 37.5 C 0 16.789062 16.789062 0 37.5 0 Z M 37.5 0 " clip-rule="nonzero"/></clipPath><clipPath id="8ed978e1dc"><path d="M 0 0 L 144 0 L 144 144 L 0 144 Z M 0 0 " clip-rule="nonzero"/></clipPath><clipPath id="226278c034"><path d="M 37.5 0 L 106.5 0 C 127.210938 0 144 16.789062 144 37.5 L 144 106.5 C 144 127.210938 127.210938 144 106.5 144 L 37.5 144 C 16.789062 144 0 127.210938 0 106.5 L 0 37.5 C 0 16.789062 16.789062 0 37.5 0 Z M 37.5 0 " clip-rule="nonzero"/></clipPath><clipPath id="c7830cf4b4"><rect x="0" width="144" y="0" height="144"/></clipPath><clipPath id="f06d40d94a"><rect x="0" width="144" y="0" height="144"/></clipPath><clipPath id="9dc5d5195a"><path d="M 42 33 L 90.839844 33 L 90.839844 92 L 42 92 Z M 42 33 " clip-rule="nonzero"/></clipPath><clipPath id="a8af514c5d"><rect x="0" width="91" y="0" height="118"/></clipPath></defs><g mask="url(#fb3b6a1dd7)"><g transform="matrix(1, 0, 0, 1, 0, -0.000000000000008916)"><g clip-path="url(#f06d40d94a)"><g clip-path="url(#98d57f17f0)"><g clip-path="url(#48d5baf166)"><g transform="matrix(1, 0, 0, 1, 0, -0.000000000000008916)"><g clip-path="url(#c7830cf4b4)"><g clip-path="url(#8ed978e1dc)"><g clip-path="url(#226278c034)"><rect x="-52.416" width="248.832" fill="#ffffff" y="-52.415999" height="248.831996" fill-opacity="1"/></g></g></g></g></g></g></g></g></g><g transform="matrix(1, 0, 0, 1, 27, 22)"><g clip-path="url(#a8af514c5d)"><g fill="#ffffff" fill-opacity="1"><g transform="translate(4.665303, 67.384887)"><g><path d="M 19.5625 -9.015625 C 19.5625 -4.210938 21.441406 -1.8125 25.203125 -1.8125 L 24.921875 0 L -2.484375 0 L -2.234375 -1.8125 C -0.0234375 -1.8125 1.800781 -2.445312 3.25 -3.71875 C 4.695312 -5 5.609375 -6.765625 5.984375 -9.015625 L 13.0625 -48.828125 C 13.0625 -53.597656 11.179688 -55.984375 7.421875 -55.984375 L 7.71875 -57.84375 L 55.609375 -57.84375 L 52.484375 -40.21875 L 50.765625 -40.21875 C 50.722656 -41.113281 50.648438 -42.394531 50.546875 -44.0625 C 50.441406 -45.726562 50.0625 -47.351562 49.40625 -48.9375 C 48.757812 -50.519531 47.570312 -51.894531 45.84375 -53.0625 C 44.113281 -54.226562 41.707031 -54.851562 38.625 -54.9375 L 31.328125 -55.09375 C 29.753906 -55.09375 28.71875 -54.804688 28.21875 -54.234375 C 27.71875 -53.660156 27.273438 -52.25 26.890625 -50 L 23.359375 -30.6875 C 26.773438 -30.851562 29.335938 -31.234375 31.046875 -31.828125 C 32.765625 -32.429688 34.226562 -33.566406 35.4375 -35.234375 C 36.644531 -36.898438 38.015625 -39.5625 39.546875 -43.21875 L 41.359375 -43.21875 L 36.421875 -15.015625 L 34.578125 -15.015625 C 34.296875 -18.796875 33.863281 -21.503906 33.28125 -23.140625 C 32.695312 -24.773438 31.65625 -25.894531 30.15625 -26.5 C 28.664062 -27.101562 26.226562 -27.488281 22.84375 -27.65625 Z M 19.5625 -9.015625 "/></g></g></g><g clip-path="url(#9dc5d5195a)"><g fill="#ffffff" fill-opacity="1"><g transform="translate(32.657753, 91.87913)"><g><path d="M 57.484375 -58.484375 L 55.640625 -47.953125 L 39.34375 -47.953125 L 30.90625 0 L 17.203125 0 L 25.65625 -47.953125 L 9.359375 -47.953125 L 11.1875 -58.484375 Z M 57.484375 -58.484375 "/></g></g></g></g></g></g></svg>